{
	"asset":{
		"generator":"Khronos glTF Blender I/O v4.1.63",
		"version":"2.0"
	},
	"scene":0,
	"scenes":[
		{
			"name":"Scene",
			"nodes":[
				3
			]
		}
	],
	"nodes":[
		{
			"mesh":0,
			"name":"Curve.002",
			"rotation":[
				0.7071133255958557,
				0,
				0,
				0.7071002721786499
			],
			"scale":[
				106.29042053222656,
				106.29042053222656,
				106.29042053222656
			],
			"translation":[
				0.013437636196613312,
				6,
				-1.0036978721618652
			]
		},
		{
			"children":[
				0
			],
			"name":"logo AD SIGN fix-01.svg"
		},
		{
			"children":[
				1
			],
			"name":"Collection"
		},
		{
			"children":[
				2
			],
			"name":"Scene Collection"
		}
	],
	"materials":[
		{
			"name":"hAQHZZSsyDcukIQ.001",
			"normalTexture":{
				"index":0
			},
			"pbrMetallicRoughness":{
				"baseColorFactor":[
					0.03783238306641579,
					0.009611807763576508,
					0.4998120665550232,
					1
				],
				"baseColorTexture":{
					"index":1
				},
				"metallicFactor":0.0010000000474974513,
				"metallicRoughnessTexture":{
					"index":2
				},
				"roughnessFactor":-0.31999993324279785
			}
		}
	],
	"meshes":[
		{
			"name":"Curve.002",
			"primitives":[
				{
					"attributes":{
						"POSITION":0,
						"NORMAL":1,
						"TEXCOORD_0":2
					},
					"indices":3,
					"material":0
				}
			]
		}
	],
	"textures":[
		{
			"sampler":0,
			"source":0
		},
		{
			"sampler":0,
			"source":1
		},
		{
			"sampler":0,
			"source":2
		}
	],
	"images":[
		{
			"mimeType":"image/png",
			"name":"uPkWkMfsezDeXRA_normal",
			"uri":"uPkWkMfsezDeXRA_normal.png"
		},
		{
			"mimeType":"image/png",
			"name":"bzuVtdGDovjRvyb_metallicRoughness",
			"uri":"bzuVtdGDovjRvyb_metallicRoughness.png"
		},
		{
			"mimeType":"image/png",
			"name":"Metal014",
			"uri":"Metal014.png"
		}
	],
	"accessors":[
		{
			"bufferView":0,
			"componentType":5126,
			"count":40495,
			"max":[
				0.06615646928548813,
				0.009999999776482582,
				0.03723151236772537
			],
			"min":[
				-0.05659082531929016,
				0,
				-0.03246389329433441
			],
			"type":"VEC3"
		},
		{
			"bufferView":1,
			"componentType":5126,
			"count":40495,
			"type":"VEC3"
		},
		{
			"bufferView":2,
			"componentType":5126,
			"count":40495,
			"type":"VEC2"
		},
		{
			"bufferView":3,
			"componentType":5123,
			"count":81756,
			"type":"SCALAR"
		}
	],
	"bufferViews":[
		{
			"buffer":0,
			"byteLength":485940,
			"byteOffset":0,
			"target":34962
		},
		{
			"buffer":0,
			"byteLength":485940,
			"byteOffset":485940,
			"target":34962
		},
		{
			"buffer":0,
			"byteLength":323960,
			"byteOffset":971880,
			"target":34962
		},
		{
			"buffer":0,
			"byteLength":163512,
			"byteOffset":1295840,
			"target":34963
		}
	],
	"samplers":[
		{
			"magFilter":9729,
			"minFilter":9987
		}
	],
	"buffers":[
		{
			"byteLength":1459352,
			"uri":"scene.bin"
		}
	]
}
