<?xml version="1.0" encoding="utf-8"?>
<!-- Generator: Adobe Illustrator 24.3.0, SVG Export Plug-In . SVG Version: 6.00 Build 0)  -->
<svg version="1.1" id="Layer_1" xmlns="http://www.w3.org/2000/svg" xmlns:xlink="http://www.w3.org/1999/xlink" x="0px" y="0px"
	 viewBox="0 0 480 480" style="enable-background:new 0 0 480 480;" xml:space="preserve">
<style type="text/css">
	.st0{fill:url(#SVGID_1_);}
	.st1{fill:#FFFFFF;}
</style>
<linearGradient id="SVGID_1_" gradientUnits="userSpaceOnUse" x1="240.3333" y1="-0.3889" x2="240.3333" y2="479.6111">
	<stop  offset="0" style="stop-color:#0072D4"/>
	<stop  offset="0.4101" style="stop-color:#0086D4"/>
	<stop  offset="0.5427" style="stop-color:#0081CE"/>
	<stop  offset="0.7142" style="stop-color:#0072BE"/>
	<stop  offset="0.9064" style="stop-color:#005AA4"/>
	<stop  offset="1" style="stop-color:#004C94"/>
</linearGradient>
<rect x="0.33" y="-0.39" class="st0" width="480" height="480"/>
<g>
	<path class="st1" d="M189.54,157.23c-38.25,0-69.26,31.02-69.26,69.28s31.02,69.28,69.26,69.28c38.26,0,69.28-31.02,69.28-69.28
		S227.81,157.23,189.54,157.23z M189.54,270.4c-24.23,0-43.88-19.65-43.88-43.89c0-24.23,19.65-43.88,43.88-43.88
		c24.25,0,43.89,19.65,43.89,43.88C233.44,250.75,213.79,270.4,189.54,270.4z"/>
	<g>
		
			<rect x="227.75" y="211.3" transform="matrix(0.7071 -0.7071 0.7071 0.7071 -65.1944 295.6241)" class="st1" width="193" height="30.42"/>
		
			<rect x="309.04" y="130.01" transform="matrix(0.7071 -0.7071 0.7071 0.7071 -65.1944 295.6241)" class="st1" width="30.42" height="193"/>
	</g>
	<path class="st1" d="M457.75,229.49c0.06-1.99,0.06-3.98,0-5.96c-0.72-27.39-11.55-54.56-32.44-75.46
		c-0.19-0.19-0.37-0.37-0.56-0.55l-21.5,21.5l0.55,0.55c31.44,31.44,31.44,82.42,0,113.86l-0.55,0.55l21.5,21.5
		c0.19-0.18,0.37-0.36,0.56-0.55C446.21,284.05,457.03,256.88,457.75,229.49z"/>
	<path class="st1" d="M261.26,310.58c-43.58,37.6-109.47,35.72-150.82-5.63c-43.33-43.33-43.33-113.55,0-156.88
		c41.34-41.34,107.17-43.23,150.75-5.68l-21.59,21.59c-31.62-25.72-78.2-23.85-107.65,5.6c-31.45,31.45-31.45,82.41,0,113.86
		c29.46,29.46,76.09,31.32,107.72,5.55L261.26,310.58z"/>
	<path class="st1" d="M62.39,331.96c4.3,4.92,11.9,5.13,16.52,0.51l22.84-22.84l-0.8-0.8c-45.47-45.47-45.46-119.19,0-164.65
		l0.8-0.8l-22.84-22.84c-4.62-4.62-12.22-4.41-16.52,0.51c-25.34,28.99-38.5,64.93-39.45,101.14c-0.09,2.87-0.09,5.74,0,8.62
		C23.89,267.03,37.05,302.97,62.39,331.96z"/>
	<path class="st1" d="M403.24,291.5l17.67,17.67l-10.12,10.12c-4.17,4.17-10.93,4.17-15.1,0l-10.12-10.12L403.24,291.5z"/>
	<path class="st1" d="M403.24,161.19l-17.67-17.67l10.12-10.12c4.17-4.17,10.93-4.17,15.1,0l10.12,10.12L403.24,161.19z"/>
	<path class="st1" d="M325.96,261.52l0.49,0.5c28.1,27.92,28.1,73.19,0,101.12l-0.49,0.5l-51.38-51.07L325.96,261.52z"/>
	<path class="st1" d="M400.65,186.72l0.38,0.39c21.9,21.76,21.9,57.04,0,78.79l-0.38,0.39l-40.04-39.79L400.65,186.72z"/>
	
		<rect x="165.65" y="202.08" transform="matrix(0.7071 -0.7071 0.7071 0.7071 -104.4924 200.7504)" class="st1" width="48.86" height="48.86"/>
</g>
</svg>
